  0
SECTION
  2
BLOCKS
  0
ENDSEC
  0
SECTION
  2
ENTITIES
  0
LINE
  8
0
 10
0
 11
0
 20
40.623
 21
50.623
  0
LINE
  8
0
 10
0
 11
3
 20
50.623
 21
50.623
  0
LINE
  8
0
 10
3
 11
3
 20
50.623
 21
53.773
  0
LINE
  8
0
 10
3
 11
6
 20
53.773
 21
53.773
  0
LINE
  8
0
 10
6
 11
6
 20
53.773
 21
51.698
  0
LINE
  8
0
 10
6
 11
8.6
 20
51.698
 21
51.698
  0
LINE
  8
0
 10
8.6
 11
8.6
 20
51.698
 21
53.773
  0
LINE
  8
0
 10
8.6
 11
12
 20
53.773
 21
53.773
  0
LINE
  8
0
 10
12
 11
12
 20
53.773
 21
57.473
  0
LINE
  8
0
 10
12
 11
8.6
 20
57.473
 21
57.473
  0
LINE
  8
0
 10
8.6
 11
8.6
 20
57.473
 21
59.548
  0
LINE
  8
0
 10
8.6
 11
6
 20
59.548
 21
59.548
  0
LINE
  8
0
 10
6
 11
6
 20
59.548
 21
57.473
  0
LINE
  8
0
 10
6
 11
3
 20
57.473
 21
57.473
  0
LINE
  8
0
 10
3
 11
3
 20
57.473
 21
60.623
  0
LINE
  8
0
 10
3
 11
0
 20
60.623
 21
60.623
  0
LINE
  8
0
 10
0
 11
0
 20
60.623
 21
70.623
  0
LINE
  8
0
 10
0
 11
3
 20
70.623
 21
70.623
  0
LINE
  8
0
 10
3
 11
3
 20
70.623
 21
108.246
  0
LINE
  8
0
 10
3
 11
36.429
 20
108.246
 21
108.246
  0
LINE
  8
0
 10
36.429
 11
36.429
 20
108.246
 21
111.246
  0
LINE
  8
0
 10
36.429
 11
46.429
 20
111.246
 21
111.246
  0
LINE
  8
0
 10
46.429
 11
46.429
 20
111.246
 21
108.246
  0
LINE
  8
0
 10
46.429
 11
49.579
 20
108.246
 21
108.246
  0
LINE
  8
0
 10
49.579
 11
49.579
 20
108.246
 21
105.246
  0
LINE
  8
0
 10
49.579
 11
47.504
 20
105.246
 21
105.246
  0
LINE
  8
0
 10
47.504
 11
47.504
 20
105.246
 21
102.646
  0
LINE
  8
0
 10
47.504
 11
49.579
 20
102.646
 21
102.646
  0
LINE
  8
0
 10
49.579
 11
49.579
 20
102.646
 21
99.246
  0
LINE
  8
0
 10
49.579
 11
53.279
 20
99.246
 21
99.246
  0
LINE
  8
0
 10
53.279
 11
53.279
 20
99.246
 21
102.646
  0
LINE
  8
0
 10
53.279
 11
55.354
 20
102.646
 21
102.646
  0
LINE
  8
0
 10
55.354
 11
55.354
 20
102.646
 21
105.246
  0
LINE
  8
0
 10
55.354
 11
53.279
 20
105.246
 21
105.246
  0
LINE
  8
0
 10
53.279
 11
53.279
 20
105.246
 21
108.246
  0
LINE
  8
0
 10
53.279
 11
56.429
 20
108.246
 21
108.246
  0
LINE
  8
0
 10
56.429
 11
56.429
 20
108.246
 21
111.246
  0
LINE
  8
0
 10
56.429
 11
66.429
 20
111.246
 21
111.246
  0
LINE
  8
0
 10
66.429
 11
66.429
 20
111.246
 21
108.246
  0
LINE
  8
0
 10
66.429
 11
113.571
 20
108.246
 21
108.246
  0
LINE
  8
0
 10
113.571
 11
113.571
 20
108.246
 21
111.246
  0
LINE
  8
0
 10
113.571
 11
123.571
 20
111.246
 21
111.246
  0
LINE
  8
0
 10
123.571
 11
123.571
 20
111.246
 21
108.246
  0
LINE
  8
0
 10
123.571
 11
126.721
 20
108.246
 21
108.246
  0
LINE
  8
0
 10
126.721
 11
126.721
 20
108.246
 21
105.246
  0
LINE
  8
0
 10
126.721
 11
124.646
 20
105.246
 21
105.246
  0
LINE
  8
0
 10
124.646
 11
124.646
 20
105.246
 21
102.646
  0
LINE
  8
0
 10
124.646
 11
126.721
 20
102.646
 21
102.646
  0
LINE
  8
0
 10
126.721
 11
126.721
 20
102.646
 21
99.246
  0
LINE
  8
0
 10
126.721
 11
130.421
 20
99.246
 21
99.246
  0
LINE
  8
0
 10
130.421
 11
130.421
 20
99.246
 21
102.646
  0
LINE
  8
0
 10
130.421
 11
132.496
 20
102.646
 21
102.646
  0
LINE
  8
0
 10
132.496
 11
132.496
 20
102.646
 21
105.246
  0
LINE
  8
0
 10
132.496
 11
130.421
 20
105.246
 21
105.246
  0
LINE
  8
0
 10
130.421
 11
130.421
 20
105.246
 21
108.246
  0
LINE
  8
0
 10
130.421
 11
133.571
 20
108.246
 21
108.246
  0
LINE
  8
0
 10
133.571
 11
133.571
 20
108.246
 21
111.246
  0
LINE
  8
0
 10
133.571
 11
143.571
 20
111.246
 21
111.246
  0
LINE
  8
0
 10
143.571
 11
143.571
 20
111.246
 21
108.246
  0
LINE
  8
0
 10
143.571
 11
177
 20
108.246
 21
108.246
  0
LINE
  8
0
 10
177
 11
177
 20
108.246
 21
70.623
  0
LINE
  8
0
 10
177
 11
180
 20
70.623
 21
70.623
  0
LINE
  8
0
 10
180
 11
180
 20
70.623
 21
60.623
  0
LINE
  8
0
 10
180
 11
177
 20
60.623
 21
60.623
  0
LINE
  8
0
 10
177
 11
177
 20
60.623
 21
57.473
  0
LINE
  8
0
 10
177
 11
174
 20
57.473
 21
57.473
  0
LINE
  8
0
 10
174
 11
174
 20
57.473
 21
59.548
  0
LINE
  8
0
 10
174
 11
171.4
 20
59.548
 21
59.548
  0
LINE
  8
0
 10
171.4
 11
171.4
 20
59.548
 21
57.473
  0
LINE
  8
0
 10
171.4
 11
168
 20
57.473
 21
57.473
  0
LINE
  8
0
 10
168
 11
168
 20
57.473
 21
53.773
  0
LINE
  8
0
 10
168
 11
171.4
 20
53.773
 21
53.773
  0
LINE
  8
0
 10
171.4
 11
171.4
 20
53.773
 21
51.698
  0
LINE
  8
0
 10
171.4
 11
174
 20
51.698
 21
51.698
  0
LINE
  8
0
 10
174
 11
174
 20
51.698
 21
53.773
  0
LINE
  8
0
 10
174
 11
177
 20
53.773
 21
53.773
  0
LINE
  8
0
 10
177
 11
177
 20
53.773
 21
50.623
  0
LINE
  8
0
 10
177
 11
180
 20
50.623
 21
50.623
  0
LINE
  8
0
 10
180
 11
180
 20
50.623
 21
40.623
  0
LINE
  8
0
 10
180
 11
177
 20
40.623
 21
40.623
  0
LINE
  8
0
 10
177
 11
177
 20
40.623
 21
3
  0
LINE
  8
0
 10
177
 11
143.571
 20
3
 21
3
  0
LINE
  8
0
 10
143.571
 11
143.571
 20
3
 21
0
  0
LINE
  8
0
 10
143.571
 11
133.571
 20
0
 21
0
  0
LINE
  8
0
 10
133.571
 11
133.571
 20
0
 21
3
  0
LINE
  8
0
 10
133.571
 11
130.421
 20
3
 21
3
  0
LINE
  8
0
 10
130.421
 11
130.421
 20
3
 21
6
  0
LINE
  8
0
 10
130.421
 11
132.496
 20
6
 21
6
  0
LINE
  8
0
 10
132.496
 11
132.496
 20
6
 21
8.6
  0
LINE
  8
0
 10
132.496
 11
130.421
 20
8.6
 21
8.6
  0
LINE
  8
0
 10
130.421
 11
130.421
 20
8.6
 21
12
  0
LINE
  8
0
 10
130.421
 11
126.721
 20
12
 21
12
  0
LINE
  8
0
 10
126.721
 11
126.721
 20
12
 21
8.6
  0
LINE
  8
0
 10
126.721
 11
124.646
 20
8.6
 21
8.6
  0
LINE
  8
0
 10
124.646
 11
124.646
 20
8.6
 21
6
  0
LINE
  8
0
 10
124.646
 11
126.721
 20
6
 21
6
  0
LINE
  8
0
 10
126.721
 11
126.721
 20
6
 21
3
  0
LINE
  8
0
 10
126.721
 11
123.571
 20
3
 21
3
  0
LINE
  8
0
 10
123.571
 11
123.571
 20
3
 21
0
  0
LINE
  8
0
 10
123.571
 11
113.571
 20
0
 21
0
  0
LINE
  8
0
 10
113.571
 11
113.571
 20
0
 21
3
  0
LINE
  8
0
 10
113.571
 11
66.429
 20
3
 21
3
  0
LINE
  8
0
 10
66.429
 11
66.429
 20
3
 21
0
  0
LINE
  8
0
 10
66.429
 11
56.429
 20
0
 21
0
  0
LINE
  8
0
 10
56.429
 11
56.429
 20
0
 21
3
  0
LINE
  8
0
 10
56.429
 11
53.279
 20
3
 21
3
  0
LINE
  8
0
 10
53.279
 11
53.279
 20
3
 21
6
  0
LINE
  8
0
 10
53.279
 11
55.354
 20
6
 21
6
  0
LINE
  8
0
 10
55.354
 11
55.354
 20
6
 21
8.6
  0
LINE
  8
0
 10
55.354
 11
53.279
 20
8.6
 21
8.6
  0
LINE
  8
0
 10
53.279
 11
53.279
 20
8.6
 21
12
  0
LINE
  8
0
 10
53.279
 11
49.579
 20
12
 21
12
  0
LINE
  8
0
 10
49.579
 11
49.579
 20
12
 21
8.6
  0
LINE
  8
0
 10
49.579
 11
47.504
 20
8.6
 21
8.6
  0
LINE
  8
0
 10
47.504
 11
47.504
 20
8.6
 21
6
  0
LINE
  8
0
 10
47.504
 11
49.579
 20
6
 21
6
  0
LINE
  8
0
 10
49.579
 11
49.579
 20
6
 21
3
  0
LINE
  8
0
 10
49.579
 11
46.429
 20
3
 21
3
  0
LINE
  8
0
 10
46.429
 11
46.429
 20
3
 21
0
  0
LINE
  8
0
 10
46.429
 11
36.429
 20
0
 21
0
  0
LINE
  8
0
 10
36.429
 11
36.429
 20
0
 21
3
  0
LINE
  8
0
 10
36.429
 11
3
 20
3
 21
3
  0
LINE
  8
0
 10
3
 11
3
 20
3
 21
40.623
  0
LINE
  8
0
 10
3
 11
0
 20
40.623
 21
40.623
  0
LINE
  8
0
 10
0
 11
0
 20
112.246
 21
162.246
  0
LINE
  8
0
 10
0
 11
180
 20
162.246
 21
162.246
  0
LINE
  8
0
 10
180
 11
180
 20
162.246
 21
112.246
  0
LINE
  8
0
 10
180
 11
0
 20
112.246
 21
112.246
  0
LINE
  8
0
 10
0
 11
0
 20
163.246
 21
213.246
  0
LINE
  8
0
 10
0
 11
105.246
 20
213.246
 21
213.246
  0
LINE
  8
0
 10
105.246
 11
105.246
 20
213.246
 21
163.246
  0
LINE
  8
0
 10
105.246
 11
0
 20
163.246
 21
163.246
  0
LINE
  8
0
 10
36.429
 11
36.429
 20
115.246
 21
118.246
  0
LINE
  8
0
 10
36.429
 11
46.429
 20
118.246
 21
118.246
  0
LINE
  8
0
 10
46.429
 11
46.429
 20
118.246
 21
115.246
  0
LINE
  8
0
 10
46.429
 11
36.429
 20
115.246
 21
115.246
  0
LINE
  8
0
 10
36.429
 11
36.429
 20
156.246
 21
159.246
  0
LINE
  8
0
 10
36.429
 11
46.429
 20
159.246
 21
159.246
  0
LINE
  8
0
 10
46.429
 11
46.429
 20
159.246
 21
156.246
  0
LINE
  8
0
 10
46.429
 11
36.429
 20
156.246
 21
156.246
  0
LINE
  8
0
 10
37.623
 11
37.623
 20
166.246
 21
169.246
  0
LINE
  8
0
 10
37.623
 11
47.623
 20
169.246
 21
169.246
  0
LINE
  8
0
 10
47.623
 11
47.623
 20
169.246
 21
166.246
  0
LINE
  8
0
 10
47.623
 11
37.623
 20
166.246
 21
166.246
  0
LINE
  8
0
 10
37.623
 11
37.623
 20
207.246
 21
210.246
  0
LINE
  8
0
 10
37.623
 11
47.623
 20
210.246
 21
210.246
  0
LINE
  8
0
 10
47.623
 11
47.623
 20
210.246
 21
207.246
  0
LINE
  8
0
 10
47.623
 11
37.623
 20
207.246
 21
207.246
  0
LINE
  8
0
 10
49.579
 11
49.619
 20
116.746
 21
117.131
  0
LINE
  8
0
 10
49.619
 11
49.739
 20
117.131
 21
117.498
  0
LINE
  8
0
 10
49.739
 11
49.932
 20
117.498
 21
117.833
  0
LINE
  8
0
 10
49.932
 11
50.191
 20
117.833
 21
118.121
  0
LINE
  8
0
 10
50.191
 11
50.504
 20
118.121
 21
118.348
  0
LINE
  8
0
 10
50.504
 11
50.857
 20
118.348
 21
118.505
  0
LINE
  8
0
 10
50.857
 11
51.236
 20
118.505
 21
118.586
  0
LINE
  8
0
 10
51.236
 11
51.622
 20
118.586
 21
118.586
  0
LINE
  8
0
 10
51.622
 11
52.001
 20
118.586
 21
118.505
  0
LINE
  8
0
 10
52.001
 11
52.354
 20
118.505
 21
118.348
  0
LINE
  8
0
 10
52.354
 11
52.667
 20
118.348
 21
118.121
  0
LINE
  8
0
 10
52.667
 11
52.926
 20
118.121
 21
117.833
  0
LINE
  8
0
 10
52.926
 11
53.119
 20
117.833
 21
117.498
  0
LINE
  8
0
 10
53.119
 11
53.239
 20
117.498
 21
117.131
  0
LINE
  8
0
 10
53.239
 11
53.279
 20
117.131
 21
116.746
  0
LINE
  8
0
 10
53.279
 11
53.239
 20
116.746
 21
116.361
  0
LINE
  8
0
 10
53.239
 11
53.119
 20
116.361
 21
115.994
  0
LINE
  8
0
 10
53.119
 11
52.926
 20
115.994
 21
115.659
  0
LINE
  8
0
 10
52.926
 11
52.667
 20
115.659
 21
115.371
  0
LINE
  8
0
 10
52.667
 11
52.354
 20
115.371
 21
115.144
  0
LINE
  8
0
 10
52.354
 11
52.001
 20
115.144
 21
114.987
  0
LINE
  8
0
 10
52.001
 11
51.622
 20
114.987
 21
114.906
  0
LINE
  8
0
 10
51.622
 11
51.236
 20
114.906
 21
114.906
  0
LINE
  8
0
 10
51.236
 11
50.857
 20
114.906
 21
114.987
  0
LINE
  8
0
 10
50.857
 11
50.504
 20
114.987
 21
115.144
  0
LINE
  8
0
 10
50.504
 11
50.191
 20
115.144
 21
115.371
  0
LINE
  8
0
 10
50.191
 11
49.932
 20
115.371
 21
115.659
  0
LINE
  8
0
 10
49.932
 11
49.739
 20
115.659
 21
115.994
  0
LINE
  8
0
 10
49.739
 11
49.619
 20
115.994
 21
116.361
  0
LINE
  8
0
 10
49.619
 11
49.579
 20
116.361
 21
116.746
  0
LINE
  8
0
 10
49.579
 11
49.619
 20
157.746
 21
158.131
  0
LINE
  8
0
 10
49.619
 11
49.739
 20
158.131
 21
158.498
  0
LINE
  8
0
 10
49.739
 11
49.932
 20
158.498
 21
158.833
  0
LINE
  8
0
 10
49.932
 11
50.191
 20
158.833
 21
159.121
  0
LINE
  8
0
 10
50.191
 11
50.504
 20
159.121
 21
159.348
  0
LINE
  8
0
 10
50.504
 11
50.857
 20
159.348
 21
159.505
  0
LINE
  8
0
 10
50.857
 11
51.236
 20
159.505
 21
159.586
  0
LINE
  8
0
 10
51.236
 11
51.622
 20
159.586
 21
159.586
  0
LINE
  8
0
 10
51.622
 11
52.001
 20
159.586
 21
159.505
  0
LINE
  8
0
 10
52.001
 11
52.354
 20
159.505
 21
159.348
  0
LINE
  8
0
 10
52.354
 11
52.667
 20
159.348
 21
159.121
  0
LINE
  8
0
 10
52.667
 11
52.926
 20
159.121
 21
158.833
  0
LINE
  8
0
 10
52.926
 11
53.119
 20
158.833
 21
158.498
  0
LINE
  8
0
 10
53.119
 11
53.239
 20
158.498
 21
158.131
  0
LINE
  8
0
 10
53.239
 11
53.279
 20
158.131
 21
157.746
  0
LINE
  8
0
 10
53.279
 11
53.239
 20
157.746
 21
157.361
  0
LINE
  8
0
 10
53.239
 11
53.119
 20
157.361
 21
156.994
  0
LINE
  8
0
 10
53.119
 11
52.926
 20
156.994
 21
156.659
  0
LINE
  8
0
 10
52.926
 11
52.667
 20
156.659
 21
156.371
  0
LINE
  8
0
 10
52.667
 11
52.354
 20
156.371
 21
156.144
  0
LINE
  8
0
 10
52.354
 11
52.001
 20
156.144
 21
155.987
  0
LINE
  8
0
 10
52.001
 11
51.622
 20
155.987
 21
155.906
  0
LINE
  8
0
 10
51.622
 11
51.236
 20
155.906
 21
155.906
  0
LINE
  8
0
 10
51.236
 11
50.857
 20
155.906
 21
155.987
  0
LINE
  8
0
 10
50.857
 11
50.504
 20
155.987
 21
156.144
  0
LINE
  8
0
 10
50.504
 11
50.191
 20
156.144
 21
156.371
  0
LINE
  8
0
 10
50.191
 11
49.932
 20
156.371
 21
156.659
  0
LINE
  8
0
 10
49.932
 11
49.739
 20
156.659
 21
156.994
  0
LINE
  8
0
 10
49.739
 11
49.619
 20
156.994
 21
157.361
  0
LINE
  8
0
 10
49.619
 11
49.579
 20
157.361
 21
157.746
  0
LINE
  8
0
 10
50.773
 11
50.813
 20
167.746
 21
168.131
  0
LINE
  8
0
 10
50.813
 11
50.933
 20
168.131
 21
168.498
  0
LINE
  8
0
 10
50.933
 11
51.126
 20
168.498
 21
168.833
  0
LINE
  8
0
 10
51.126
 11
51.385
 20
168.833
 21
169.121
  0
LINE
  8
0
 10
51.385
 11
51.698
 20
169.121
 21
169.348
  0
LINE
  8
0
 10
51.698
 11
52.051
 20
169.348
 21
169.505
  0
LINE
  8
0
 10
52.051
 11
52.43
 20
169.505
 21
169.586
  0
LINE
  8
0
 10
52.43
 11
52.816
 20
169.586
 21
169.586
  0
LINE
  8
0
 10
52.816
 11
53.195
 20
169.586
 21
169.505
  0
LINE
  8
0
 10
53.195
 11
53.548
 20
169.505
 21
169.348
  0
LINE
  8
0
 10
53.548
 11
53.861
 20
169.348
 21
169.121
  0
LINE
  8
0
 10
53.861
 11
54.12
 20
169.121
 21
168.833
  0
LINE
  8
0
 10
54.12
 11
54.313
 20
168.833
 21
168.498
  0
LINE
  8
0
 10
54.313
 11
54.433
 20
168.498
 21
168.131
  0
LINE
  8
0
 10
54.433
 11
54.473
 20
168.131
 21
167.746
  0
LINE
  8
0
 10
54.473
 11
54.433
 20
167.746
 21
167.361
  0
LINE
  8
0
 10
54.433
 11
54.313
 20
167.361
 21
166.994
  0
LINE
  8
0
 10
54.313
 11
54.12
 20
166.994
 21
166.659
  0
LINE
  8
0
 10
54.12
 11
53.861
 20
166.659
 21
166.371
  0
LINE
  8
0
 10
53.861
 11
53.548
 20
166.371
 21
166.144
  0
LINE
  8
0
 10
53.548
 11
53.195
 20
166.144
 21
165.987
  0
LINE
  8
0
 10
53.195
 11
52.816
 20
165.987
 21
165.906
  0
LINE
  8
0
 10
52.816
 11
52.43
 20
165.906
 21
165.906
  0
LINE
  8
0
 10
52.43
 11
52.051
 20
165.906
 21
165.987
  0
LINE
  8
0
 10
52.051
 11
51.698
 20
165.987
 21
166.144
  0
LINE
  8
0
 10
51.698
 11
51.385
 20
166.144
 21
166.371
  0
LINE
  8
0
 10
51.385
 11
51.126
 20
166.371
 21
166.659
  0
LINE
  8
0
 10
51.126
 11
50.933
 20
166.659
 21
166.994
  0
LINE
  8
0
 10
50.933
 11
50.813
 20
166.994
 21
167.361
  0
LINE
  8
0
 10
50.813
 11
50.773
 20
167.361
 21
167.746
  0
LINE
  8
0
 10
50.773
 11
50.813
 20
208.746
 21
209.131
  0
LINE
  8
0
 10
50.813
 11
50.933
 20
209.131
 21
209.498
  0
LINE
  8
0
 10
50.933
 11
51.126
 20
209.498
 21
209.833
  0
LINE
  8
0
 10
51.126
 11
51.385
 20
209.833
 21
210.121
  0
LINE
  8
0
 10
51.385
 11
51.698
 20
210.121
 21
210.348
  0
LINE
  8
0
 10
51.698
 11
52.051
 20
210.348
 21
210.505
  0
LINE
  8
0
 10
52.051
 11
52.43
 20
210.505
 21
210.586
  0
LINE
  8
0
 10
52.43
 11
52.816
 20
210.586
 21
210.586
  0
LINE
  8
0
 10
52.816
 11
53.195
 20
210.586
 21
210.505
  0
LINE
  8
0
 10
53.195
 11
53.548
 20
210.505
 21
210.348
  0
LINE
  8
0
 10
53.548
 11
53.861
 20
210.348
 21
210.121
  0
LINE
  8
0
 10
53.861
 11
54.12
 20
210.121
 21
209.833
  0
LINE
  8
0
 10
54.12
 11
54.313
 20
209.833
 21
209.498
  0
LINE
  8
0
 10
54.313
 11
54.433
 20
209.498
 21
209.131
  0
LINE
  8
0
 10
54.433
 11
54.473
 20
209.131
 21
208.746
  0
LINE
  8
0
 10
54.473
 11
54.433
 20
208.746
 21
208.361
  0
LINE
  8
0
 10
54.433
 11
54.313
 20
208.361
 21
207.994
  0
LINE
  8
0
 10
54.313
 11
54.12
 20
207.994
 21
207.659
  0
LINE
  8
0
 10
54.12
 11
53.861
 20
207.659
 21
207.371
  0
LINE
  8
0
 10
53.861
 11
53.548
 20
207.371
 21
207.144
  0
LINE
  8
0
 10
53.548
 11
53.195
 20
207.144
 21
206.987
  0
LINE
  8
0
 10
53.195
 11
52.816
 20
206.987
 21
206.906
  0
LINE
  8
0
 10
52.816
 11
52.43
 20
206.906
 21
206.906
  0
LINE
  8
0
 10
52.43
 11
52.051
 20
206.906
 21
206.987
  0
LINE
  8
0
 10
52.051
 11
51.698
 20
206.987
 21
207.144
  0
LINE
  8
0
 10
51.698
 11
51.385
 20
207.144
 21
207.371
  0
LINE
  8
0
 10
51.385
 11
51.126
 20
207.371
 21
207.659
  0
LINE
  8
0
 10
51.126
 11
50.933
 20
207.659
 21
207.994
  0
LINE
  8
0
 10
50.933
 11
50.813
 20
207.994
 21
208.361
  0
LINE
  8
0
 10
50.813
 11
50.773
 20
208.361
 21
208.746
  0
LINE
  8
0
 10
56.429
 11
56.429
 20
115.246
 21
118.246
  0
LINE
  8
0
 10
56.429
 11
66.429
 20
118.246
 21
118.246
  0
LINE
  8
0
 10
66.429
 11
66.429
 20
118.246
 21
115.246
  0
LINE
  8
0
 10
66.429
 11
56.429
 20
115.246
 21
115.246
  0
LINE
  8
0
 10
56.429
 11
56.429
 20
156.246
 21
159.246
  0
LINE
  8
0
 10
56.429
 11
66.429
 20
159.246
 21
159.246
  0
LINE
  8
0
 10
66.429
 11
66.429
 20
159.246
 21
156.246
  0
LINE
  8
0
 10
66.429
 11
56.429
 20
156.246
 21
156.246
  0
LINE
  8
0
 10
57.623
 11
57.623
 20
166.246
 21
169.246
  0
LINE
  8
0
 10
57.623
 11
67.623
 20
169.246
 21
169.246
  0
LINE
  8
0
 10
67.623
 11
67.623
 20
169.246
 21
166.246
  0
LINE
  8
0
 10
67.623
 11
57.623
 20
166.246
 21
166.246
  0
LINE
  8
0
 10
57.623
 11
57.623
 20
207.246
 21
210.246
  0
LINE
  8
0
 10
57.623
 11
67.623
 20
210.246
 21
210.246
  0
LINE
  8
0
 10
67.623
 11
67.623
 20
210.246
 21
207.246
  0
LINE
  8
0
 10
67.623
 11
57.623
 20
207.246
 21
207.246
  0
LINE
  8
0
 10
106.246
 11
106.246
 20
163.246
 21
213.246
  0
LINE
  8
0
 10
106.246
 11
211.492
 20
213.246
 21
213.246
  0
LINE
  8
0
 10
211.492
 11
211.492
 20
213.246
 21
163.246
  0
LINE
  8
0
 10
211.492
 11
106.246
 20
163.246
 21
163.246
  0
LINE
  8
0
 10
113.571
 11
113.571
 20
115.246
 21
118.246
  0
LINE
  8
0
 10
113.571
 11
123.571
 20
118.246
 21
118.246
  0
LINE
  8
0
 10
123.571
 11
123.571
 20
118.246
 21
115.246
  0
LINE
  8
0
 10
123.571
 11
113.571
 20
115.246
 21
115.246
  0
LINE
  8
0
 10
113.571
 11
113.571
 20
156.246
 21
159.246
  0
LINE
  8
0
 10
113.571
 11
123.571
 20
159.246
 21
159.246
  0
LINE
  8
0
 10
123.571
 11
123.571
 20
159.246
 21
156.246
  0
LINE
  8
0
 10
123.571
 11
113.571
 20
156.246
 21
156.246
  0
LINE
  8
0
 10
126.721
 11
126.761
 20
116.746
 21
117.131
  0
LINE
  8
0
 10
126.761
 11
126.881
 20
117.131
 21
117.498
  0
LINE
  8
0
 10
126.881
 11
127.074
 20
117.498
 21
117.833
  0
LINE
  8
0
 10
127.074
 11
127.333
 20
117.833
 21
118.121
  0
LINE
  8
0
 10
127.333
 11
127.646
 20
118.121
 21
118.348
  0
LINE
  8
0
 10
127.646
 11
127.999
 20
118.348
 21
118.505
  0
LINE
  8
0
 10
127.999
 11
128.378
 20
118.505
 21
118.586
  0
LINE
  8
0
 10
128.378
 11
128.764
 20
118.586
 21
118.586
  0
LINE
  8
0
 10
128.764
 11
129.143
 20
118.586
 21
118.505
  0
LINE
  8
0
 10
129.143
 11
129.496
 20
118.505
 21
118.348
  0
LINE
  8
0
 10
129.496
 11
129.809
 20
118.348
 21
118.121
  0
LINE
  8
0
 10
129.809
 11
130.068
 20
118.121
 21
117.833
  0
LINE
  8
0
 10
130.068
 11
130.261
 20
117.833
 21
117.498
  0
LINE
  8
0
 10
130.261
 11
130.381
 20
117.498
 21
117.131
  0
LINE
  8
0
 10
130.381
 11
130.421
 20
117.131
 21
116.746
  0
LINE
  8
0
 10
130.421
 11
130.381
 20
116.746
 21
116.361
  0
LINE
  8
0
 10
130.381
 11
130.261
 20
116.361
 21
115.994
  0
LINE
  8
0
 10
130.261
 11
130.068
 20
115.994
 21
115.659
  0
LINE
  8
0
 10
130.068
 11
129.809
 20
115.659
 21
115.371
  0
LINE
  8
0
 10
129.809
 11
129.496
 20
115.371
 21
115.144
  0
LINE
  8
0
 10
129.496
 11
129.143
 20
115.144
 21
114.987
  0
LINE
  8
0
 10
129.143
 11
128.764
 20
114.987
 21
114.906
  0
LINE
  8
0
 10
128.764
 11
128.378
 20
114.906
 21
114.906
  0
LINE
  8
0
 10
128.378
 11
127.999
 20
114.906
 21
114.987
  0
LINE
  8
0
 10
127.999
 11
127.646
 20
114.987
 21
115.144
  0
LINE
  8
0
 10
127.646
 11
127.333
 20
115.144
 21
115.371
  0
LINE
  8
0
 10
127.333
 11
127.074
 20
115.371
 21
115.659
  0
LINE
  8
0
 10
127.074
 11
126.881
 20
115.659
 21
115.994
  0
LINE
  8
0
 10
126.881
 11
126.761
 20
115.994
 21
116.361
  0
LINE
  8
0
 10
126.761
 11
126.721
 20
116.361
 21
116.746
  0
LINE
  8
0
 10
126.721
 11
126.761
 20
157.746
 21
158.131
  0
LINE
  8
0
 10
126.761
 11
126.881
 20
158.131
 21
158.498
  0
LINE
  8
0
 10
126.881
 11
127.074
 20
158.498
 21
158.833
  0
LINE
  8
0
 10
127.074
 11
127.333
 20
158.833
 21
159.121
  0
LINE
  8
0
 10
127.333
 11
127.646
 20
159.121
 21
159.348
  0
LINE
  8
0
 10
127.646
 11
127.999
 20
159.348
 21
159.505
  0
LINE
  8
0
 10
127.999
 11
128.378
 20
159.505
 21
159.586
  0
LINE
  8
0
 10
128.378
 11
128.764
 20
159.586
 21
159.586
  0
LINE
  8
0
 10
128.764
 11
129.143
 20
159.586
 21
159.505
  0
LINE
  8
0
 10
129.143
 11
129.496
 20
159.505
 21
159.348
  0
LINE
  8
0
 10
129.496
 11
129.809
 20
159.348
 21
159.121
  0
LINE
  8
0
 10
129.809
 11
130.068
 20
159.121
 21
158.833
  0
LINE
  8
0
 10
130.068
 11
130.261
 20
158.833
 21
158.498
  0
LINE
  8
0
 10
130.261
 11
130.381
 20
158.498
 21
158.131
  0
LINE
  8
0
 10
130.381
 11
130.421
 20
158.131
 21
157.746
  0
LINE
  8
0
 10
130.421
 11
130.381
 20
157.746
 21
157.361
  0
LINE
  8
0
 10
130.381
 11
130.261
 20
157.361
 21
156.994
  0
LINE
  8
0
 10
130.261
 11
130.068
 20
156.994
 21
156.659
  0
LINE
  8
0
 10
130.068
 11
129.809
 20
156.659
 21
156.371
  0
LINE
  8
0
 10
129.809
 11
129.496
 20
156.371
 21
156.144
  0
LINE
  8
0
 10
129.496
 11
129.143
 20
156.144
 21
155.987
  0
LINE
  8
0
 10
129.143
 11
128.764
 20
155.987
 21
155.906
  0
LINE
  8
0
 10
128.764
 11
128.378
 20
155.906
 21
155.906
  0
LINE
  8
0
 10
128.378
 11
127.999
 20
155.906
 21
155.987
  0
LINE
  8
0
 10
127.999
 11
127.646
 20
155.987
 21
156.144
  0
LINE
  8
0
 10
127.646
 11
127.333
 20
156.144
 21
156.371
  0
LINE
  8
0
 10
127.333
 11
127.074
 20
156.371
 21
156.659
  0
LINE
  8
0
 10
127.074
 11
126.881
 20
156.659
 21
156.994
  0
LINE
  8
0
 10
126.881
 11
126.761
 20
156.994
 21
157.361
  0
LINE
  8
0
 10
126.761
 11
126.721
 20
157.361
 21
157.746
  0
LINE
  8
0
 10
133.571
 11
133.571
 20
115.246
 21
118.246
  0
LINE
  8
0
 10
133.571
 11
143.571
 20
118.246
 21
118.246
  0
LINE
  8
0
 10
143.571
 11
143.571
 20
118.246
 21
115.246
  0
LINE
  8
0
 10
143.571
 11
133.571
 20
115.246
 21
115.246
  0
LINE
  8
0
 10
133.571
 11
133.571
 20
156.246
 21
159.246
  0
LINE
  8
0
 10
133.571
 11
143.571
 20
159.246
 21
159.246
  0
LINE
  8
0
 10
143.571
 11
143.571
 20
159.246
 21
156.246
  0
LINE
  8
0
 10
143.571
 11
133.571
 20
156.246
 21
156.246
  0
LINE
  8
0
 10
143.869
 11
143.869
 20
166.246
 21
169.246
  0
LINE
  8
0
 10
143.869
 11
153.869
 20
169.246
 21
169.246
  0
LINE
  8
0
 10
153.869
 11
153.869
 20
169.246
 21
166.246
  0
LINE
  8
0
 10
153.869
 11
143.869
 20
166.246
 21
166.246
  0
LINE
  8
0
 10
143.869
 11
143.869
 20
207.246
 21
210.246
  0
LINE
  8
0
 10
143.869
 11
153.869
 20
210.246
 21
210.246
  0
LINE
  8
0
 10
153.869
 11
153.869
 20
210.246
 21
207.246
  0
LINE
  8
0
 10
153.869
 11
143.869
 20
207.246
 21
207.246
  0
LINE
  8
0
 10
157.019
 11
157.059
 20
167.746
 21
168.131
  0
LINE
  8
0
 10
157.059
 11
157.179
 20
168.131
 21
168.498
  0
LINE
  8
0
 10
157.179
 11
157.372
 20
168.498
 21
168.833
  0
LINE
  8
0
 10
157.372
 11
157.631
 20
168.833
 21
169.121
  0
LINE
  8
0
 10
157.631
 11
157.944
 20
169.121
 21
169.348
  0
LINE
  8
0
 10
157.944
 11
158.297
 20
169.348
 21
169.505
  0
LINE
  8
0
 10
158.297
 11
158.676
 20
169.505
 21
169.586
  0
LINE
  8
0
 10
158.676
 11
159.062
 20
169.586
 21
169.586
  0
LINE
  8
0
 10
159.062
 11
159.441
 20
169.586
 21
169.505
  0
LINE
  8
0
 10
159.441
 11
159.794
 20
169.505
 21
169.348
  0
LINE
  8
0
 10
159.794
 11
160.107
 20
169.348
 21
169.121
  0
LINE
  8
0
 10
160.107
 11
160.366
 20
169.121
 21
168.833
  0
LINE
  8
0
 10
160.366
 11
160.559
 20
168.833
 21
168.498
  0
LINE
  8
0
 10
160.559
 11
160.679
 20
168.498
 21
168.131
  0
LINE
  8
0
 10
160.679
 11
160.719
 20
168.131
 21
167.746
  0
LINE
  8
0
 10
160.719
 11
160.679
 20
167.746
 21
167.361
  0
LINE
  8
0
 10
160.679
 11
160.559
 20
167.361
 21
166.994
  0
LINE
  8
0
 10
160.559
 11
160.366
 20
166.994
 21
166.659
  0
LINE
  8
0
 10
160.366
 11
160.107
 20
166.659
 21
166.371
  0
LINE
  8
0
 10
160.107
 11
159.794
 20
166.371
 21
166.144
  0
LINE
  8
0
 10
159.794
 11
159.441
 20
166.144
 21
165.987
  0
LINE
  8
0
 10
159.441
 11
159.062
 20
165.987
 21
165.906
  0
LINE
  8
0
 10
159.062
 11
158.676
 20
165.906
 21
165.906
  0
LINE
  8
0
 10
158.676
 11
158.297
 20
165.906
 21
165.987
  0
LINE
  8
0
 10
158.297
 11
157.944
 20
165.987
 21
166.144
  0
LINE
  8
0
 10
157.944
 11
157.631
 20
166.144
 21
166.371
  0
LINE
  8
0
 10
157.631
 11
157.372
 20
166.371
 21
166.659
  0
LINE
  8
0
 10
157.372
 11
157.179
 20
166.659
 21
166.994
  0
LINE
  8
0
 10
157.179
 11
157.059
 20
166.994
 21
167.361
  0
LINE
  8
0
 10
157.059
 11
157.019
 20
167.361
 21
167.746
  0
LINE
  8
0
 10
157.019
 11
157.059
 20
208.746
 21
209.131
  0
LINE
  8
0
 10
157.059
 11
157.179
 20
209.131
 21
209.498
  0
LINE
  8
0
 10
157.179
 11
157.372
 20
209.498
 21
209.833
  0
LINE
  8
0
 10
157.372
 11
157.631
 20
209.833
 21
210.121
  0
LINE
  8
0
 10
157.631
 11
157.944
 20
210.121
 21
210.348
  0
LINE
  8
0
 10
157.944
 11
158.297
 20
210.348
 21
210.505
  0
LINE
  8
0
 10
158.297
 11
158.676
 20
210.505
 21
210.586
  0
LINE
  8
0
 10
158.676
 11
159.062
 20
210.586
 21
210.586
  0
LINE
  8
0
 10
159.062
 11
159.441
 20
210.586
 21
210.505
  0
LINE
  8
0
 10
159.441
 11
159.794
 20
210.505
 21
210.348
  0
LINE
  8
0
 10
159.794
 11
160.107
 20
210.348
 21
210.121
  0
LINE
  8
0
 10
160.107
 11
160.366
 20
210.121
 21
209.833
  0
LINE
  8
0
 10
160.366
 11
160.559
 20
209.833
 21
209.498
  0
LINE
  8
0
 10
160.559
 11
160.679
 20
209.498
 21
209.131
  0
LINE
  8
0
 10
160.679
 11
160.719
 20
209.131
 21
208.746
  0
LINE
  8
0
 10
160.719
 11
160.679
 20
208.746
 21
208.361
  0
LINE
  8
0
 10
160.679
 11
160.559
 20
208.361
 21
207.994
  0
LINE
  8
0
 10
160.559
 11
160.366
 20
207.994
 21
207.659
  0
LINE
  8
0
 10
160.366
 11
160.107
 20
207.659
 21
207.371
  0
LINE
  8
0
 10
160.107
 11
159.794
 20
207.371
 21
207.144
  0
LINE
  8
0
 10
159.794
 11
159.441
 20
207.144
 21
206.987
  0
LINE
  8
0
 10
159.441
 11
159.062
 20
206.987
 21
206.906
  0
LINE
  8
0
 10
159.062
 11
158.676
 20
206.906
 21
206.906
  0
LINE
  8
0
 10
158.676
 11
158.297
 20
206.906
 21
206.987
  0
LINE
  8
0
 10
158.297
 11
157.944
 20
206.987
 21
207.144
  0
LINE
  8
0
 10
157.944
 11
157.631
 20
207.144
 21
207.371
  0
LINE
  8
0
 10
157.631
 11
157.372
 20
207.371
 21
207.659
  0
LINE
  8
0
 10
157.372
 11
157.179
 20
207.659
 21
207.994
  0
LINE
  8
0
 10
157.179
 11
157.059
 20
207.994
 21
208.361
  0
LINE
  8
0
 10
157.059
 11
157.019
 20
208.361
 21
208.746
  0
LINE
  8
0
 10
163.869
 11
163.869
 20
166.246
 21
169.246
  0
LINE
  8
0
 10
163.869
 11
173.869
 20
169.246
 21
169.246
  0
LINE
  8
0
 10
173.869
 11
173.869
 20
169.246
 21
166.246
  0
LINE
  8
0
 10
173.869
 11
163.869
 20
166.246
 21
166.246
  0
LINE
  8
0
 10
163.869
 11
163.869
 20
207.246
 21
210.246
  0
LINE
  8
0
 10
163.869
 11
173.869
 20
210.246
 21
210.246
  0
LINE
  8
0
 10
173.869
 11
173.869
 20
210.246
 21
207.246
  0
LINE
  8
0
 10
173.869
 11
163.869
 20
207.246
 21
207.246
  0
LINE
  8
0
 10
181
 11
181
 20
40.623
 21
50.623
  0
LINE
  8
0
 10
181
 11
184
 20
50.623
 21
50.623
  0
LINE
  8
0
 10
184
 11
184
 20
50.623
 21
53.773
  0
LINE
  8
0
 10
184
 11
187
 20
53.773
 21
53.773
  0
LINE
  8
0
 10
187
 11
187
 20
53.773
 21
51.698
  0
LINE
  8
0
 10
187
 11
189.6
 20
51.698
 21
51.698
  0
LINE
  8
0
 10
189.6
 11
189.6
 20
51.698
 21
53.773
  0
LINE
  8
0
 10
189.6
 11
193
 20
53.773
 21
53.773
  0
LINE
  8
0
 10
193
 11
193
 20
53.773
 21
57.473
  0
LINE
  8
0
 10
193
 11
189.6
 20
57.473
 21
57.473
  0
LINE
  8
0
 10
189.6
 11
189.6
 20
57.473
 21
59.548
  0
LINE
  8
0
 10
189.6
 11
187
 20
59.548
 21
59.548
  0
LINE
  8
0
 10
187
 11
187
 20
59.548
 21
57.473
  0
LINE
  8
0
 10
187
 11
184
 20
57.473
 21
57.473
  0
LINE
  8
0
 10
184
 11
184
 20
57.473
 21
60.623
  0
LINE
  8
0
 10
184
 11
181
 20
60.623
 21
60.623
  0
LINE
  8
0
 10
181
 11
181
 20
60.623
 21
70.623
  0
LINE
  8
0
 10
181
 11
184
 20
70.623
 21
70.623
  0
LINE
  8
0
 10
184
 11
184
 20
70.623
 21
108.246
  0
LINE
  8
0
 10
184
 11
217.429
 20
108.246
 21
108.246
  0
LINE
  8
0
 10
217.429
 11
217.429
 20
108.246
 21
111.246
  0
LINE
  8
0
 10
217.429
 11
227.429
 20
111.246
 21
111.246
  0
LINE
  8
0
 10
227.429
 11
227.429
 20
111.246
 21
108.246
  0
LINE
  8
0
 10
227.429
 11
230.579
 20
108.246
 21
108.246
  0
LINE
  8
0
 10
230.579
 11
230.579
 20
108.246
 21
105.246
  0
LINE
  8
0
 10
230.579
 11
228.504
 20
105.246
 21
105.246
  0
LINE
  8
0
 10
228.504
 11
228.504
 20
105.246
 21
102.646
  0
LINE
  8
0
 10
228.504
 11
230.579
 20
102.646
 21
102.646
  0
LINE
  8
0
 10
230.579
 11
230.579
 20
102.646
 21
99.246
  0
LINE
  8
0
 10
230.579
 11
234.279
 20
99.246
 21
99.246
  0
LINE
  8
0
 10
234.279
 11
234.279
 20
99.246
 21
102.646
  0
LINE
  8
0
 10
234.279
 11
236.354
 20
102.646
 21
102.646
  0
LINE
  8
0
 10
236.354
 11
236.354
 20
102.646
 21
105.246
  0
LINE
  8
0
 10
236.354
 11
234.279
 20
105.246
 21
105.246
  0
LINE
  8
0
 10
234.279
 11
234.279
 20
105.246
 21
108.246
  0
LINE
  8
0
 10
234.279
 11
237.429
 20
108.246
 21
108.246
  0
LINE
  8
0
 10
237.429
 11
237.429
 20
108.246
 21
111.246
  0
LINE
  8
0
 10
237.429
 11
247.429
 20
111.246
 21
111.246
  0
LINE
  8
0
 10
247.429
 11
247.429
 20
111.246
 21
108.246
  0
LINE
  8
0
 10
247.429
 11
294.571
 20
108.246
 21
108.246
  0
LINE
  8
0
 10
294.571
 11
294.571
 20
108.246
 21
111.246
  0
LINE
  8
0
 10
294.571
 11
304.571
 20
111.246
 21
111.246
  0
LINE
  8
0
 10
304.571
 11
304.571
 20
111.246
 21
108.246
  0
LINE
  8
0
 10
304.571
 11
307.721
 20
108.246
 21
108.246
  0
LINE
  8
0
 10
307.721
 11
307.721
 20
108.246
 21
105.246
  0
LINE
  8
0
 10
307.721
 11
305.646
 20
105.246
 21
105.246
  0
LINE
  8
0
 10
305.646
 11
305.646
 20
105.246
 21
102.646
  0
LINE
  8
0
 10
305.646
 11
307.721
 20
102.646
 21
102.646
  0
LINE
  8
0
 10
307.721
 11
307.721
 20
102.646
 21
99.246
  0
LINE
  8
0
 10
307.721
 11
311.421
 20
99.246
 21
99.246
  0
LINE
  8
0
 10
311.421
 11
311.421
 20
99.246
 21
102.646
  0
LINE
  8
0
 10
311.421
 11
313.496
 20
102.646
 21
102.646
  0
LINE
  8
0
 10
313.496
 11
313.496
 20
102.646
 21
105.246
  0
LINE
  8
0
 10
313.496
 11
311.421
 20
105.246
 21
105.246
  0
LINE
  8
0
 10
311.421
 11
311.421
 20
105.246
 21
108.246
  0
LINE
  8
0
 10
311.421
 11
314.571
 20
108.246
 21
108.246
  0
LINE
  8
0
 10
314.571
 11
314.571
 20
108.246
 21
111.246
  0
LINE
  8
0
 10
314.571
 11
324.571
 20
111.246
 21
111.246
  0
LINE
  8
0
 10
324.571
 11
324.571
 20
111.246
 21
108.246
  0
LINE
  8
0
 10
324.571
 11
358
 20
108.246
 21
108.246
  0
LINE
  8
0
 10
358
 11
358
 20
108.246
 21
70.623
  0
LINE
  8
0
 10
358
 11
361
 20
70.623
 21
70.623
  0
LINE
  8
0
 10
361
 11
361
 20
70.623
 21
60.623
  0
LINE
  8
0
 10
361
 11
358
 20
60.623
 21
60.623
  0
LINE
  8
0
 10
358
 11
358
 20
60.623
 21
57.473
  0
LINE
  8
0
 10
358
 11
355
 20
57.473
 21
57.473
  0
LINE
  8
0
 10
355
 11
355
 20
57.473
 21
59.548
  0
LINE
  8
0
 10
355
 11
352.4
 20
59.548
 21
59.548
  0
LINE
  8
0
 10
352.4
 11
352.4
 20
59.548
 21
57.473
  0
LINE
  8
0
 10
352.4
 11
349
 20
57.473
 21
57.473
  0
LINE
  8
0
 10
349
 11
349
 20
57.473
 21
53.773
  0
LINE
  8
0
 10
349
 11
352.4
 20
53.773
 21
53.773
  0
LINE
  8
0
 10
352.4
 11
352.4
 20
53.773
 21
51.698
  0
LINE
  8
0
 10
352.4
 11
355
 20
51.698
 21
51.698
  0
LINE
  8
0
 10
355
 11
355
 20
51.698
 21
53.773
  0
LINE
  8
0
 10
355
 11
358
 20
53.773
 21
53.773
  0
LINE
  8
0
 10
358
 11
358
 20
53.773
 21
50.623
  0
LINE
  8
0
 10
358
 11
361
 20
50.623
 21
50.623
  0
LINE
  8
0
 10
361
 11
361
 20
50.623
 21
40.623
  0
LINE
  8
0
 10
361
 11
358
 20
40.623
 21
40.623
  0
LINE
  8
0
 10
358
 11
358
 20
40.623
 21
3
  0
LINE
  8
0
 10
358
 11
324.571
 20
3
 21
3
  0
LINE
  8
0
 10
324.571
 11
324.571
 20
3
 21
0
  0
LINE
  8
0
 10
324.571
 11
314.571
 20
0
 21
0
  0
LINE
  8
0
 10
314.571
 11
314.571
 20
0
 21
3
  0
LINE
  8
0
 10
314.571
 11
311.421
 20
3
 21
3
  0
LINE
  8
0
 10
311.421
 11
311.421
 20
3
 21
6
  0
LINE
  8
0
 10
311.421
 11
313.496
 20
6
 21
6
  0
LINE
  8
0
 10
313.496
 11
313.496
 20
6
 21
8.6
  0
LINE
  8
0
 10
313.496
 11
311.421
 20
8.6
 21
8.6
  0
LINE
  8
0
 10
311.421
 11
311.421
 20
8.6
 21
12
  0
LINE
  8
0
 10
311.421
 11
307.721
 20
12
 21
12
  0
LINE
  8
0
 10
307.721
 11
307.721
 20
12
 21
8.6
  0
LINE
  8
0
 10
307.721
 11
305.646
 20
8.6
 21
8.6
  0
LINE
  8
0
 10
305.646
 11
305.646
 20
8.6
 21
6
  0
LINE
  8
0
 10
305.646
 11
307.721
 20
6
 21
6
  0
LINE
  8
0
 10
307.721
 11
307.721
 20
6
 21
3
  0
LINE
  8
0
 10
307.721
 11
304.571
 20
3
 21
3
  0
LINE
  8
0
 10
304.571
 11
304.571
 20
3
 21
0
  0
LINE
  8
0
 10
304.571
 11
294.571
 20
0
 21
0
  0
LINE
  8
0
 10
294.571
 11
294.571
 20
0
 21
3
  0
LINE
  8
0
 10
294.571
 11
247.429
 20
3
 21
3
  0
LINE
  8
0
 10
247.429
 11
247.429
 20
3
 21
0
  0
LINE
  8
0
 10
247.429
 11
237.429
 20
0
 21
0
  0
LINE
  8
0
 10
237.429
 11
237.429
 20
0
 21
3
  0
LINE
  8
0
 10
237.429
 11
234.279
 20
3
 21
3
  0
LINE
  8
0
 10
234.279
 11
234.279
 20
3
 21
6
  0
LINE
  8
0
 10
234.279
 11
236.354
 20
6
 21
6
  0
LINE
  8
0
 10
236.354
 11
236.354
 20
6
 21
8.6
  0
LINE
  8
0
 10
236.354
 11
234.279
 20
8.6
 21
8.6
  0
LINE
  8
0
 10
234.279
 11
234.279
 20
8.6
 21
12
  0
LINE
  8
0
 10
234.279
 11
230.579
 20
12
 21
12
  0
LINE
  8
0
 10
230.579
 11
230.579
 20
12
 21
8.6
  0
LINE
  8
0
 10
230.579
 11
228.504
 20
8.6
 21
8.6
  0
LINE
  8
0
 10
228.504
 11
228.504
 20
8.6
 21
6
  0
LINE
  8
0
 10
228.504
 11
230.579
 20
6
 21
6
  0
LINE
  8
0
 10
230.579
 11
230.579
 20
6
 21
3
  0
LINE
  8
0
 10
230.579
 11
227.429
 20
3
 21
3
  0
LINE
  8
0
 10
227.429
 11
227.429
 20
3
 21
0
  0
LINE
  8
0
 10
227.429
 11
217.429
 20
0
 21
0
  0
LINE
  8
0
 10
217.429
 11
217.429
 20
0
 21
3
  0
LINE
  8
0
 10
217.429
 11
184
 20
3
 21
3
  0
LINE
  8
0
 10
184
 11
184
 20
3
 21
40.623
  0
LINE
  8
0
 10
184
 11
181
 20
40.623
 21
40.623
  0
LINE
  8
0
 10
181
 11
181
 20
112.246
 21
162.246
  0
LINE
  8
0
 10
181
 11
361
 20
162.246
 21
162.246
  0
LINE
  8
0
 10
361
 11
361
 20
162.246
 21
112.246
  0
LINE
  8
0
 10
361
 11
181
 20
112.246
 21
112.246
  0
LINE
  8
0
 10
217.429
 11
217.429
 20
115.246
 21
118.246
  0
LINE
  8
0
 10
217.429
 11
227.429
 20
118.246
 21
118.246
  0
LINE
  8
0
 10
227.429
 11
227.429
 20
118.246
 21
115.246
  0
LINE
  8
0
 10
227.429
 11
217.429
 20
115.246
 21
115.246
  0
LINE
  8
0
 10
217.429
 11
217.429
 20
156.246
 21
159.246
  0
LINE
  8
0
 10
217.429
 11
227.429
 20
159.246
 21
159.246
  0
LINE
  8
0
 10
227.429
 11
227.429
 20
159.246
 21
156.246
  0
LINE
  8
0
 10
227.429
 11
217.429
 20
156.246
 21
156.246
  0
LINE
  8
0
 10
230.579
 11
230.619
 20
116.746
 21
117.131
  0
LINE
  8
0
 10
230.619
 11
230.739
 20
117.131
 21
117.498
  0
LINE
  8
0
 10
230.739
 11
230.932
 20
117.498
 21
117.833
  0
LINE
  8
0
 10
230.932
 11
231.191
 20
117.833
 21
118.121
  0
LINE
  8
0
 10
231.191
 11
231.504
 20
118.121
 21
118.348
  0
LINE
  8
0
 10
231.504
 11
231.857
 20
118.348
 21
118.505
  0
LINE
  8
0
 10
231.857
 11
232.236
 20
118.505
 21
118.586
  0
LINE
  8
0
 10
232.236
 11
232.622
 20
118.586
 21
118.586
  0
LINE
  8
0
 10
232.622
 11
233.001
 20
118.586
 21
118.505
  0
LINE
  8
0
 10
233.001
 11
233.354
 20
118.505
 21
118.348
  0
LINE
  8
0
 10
233.354
 11
233.667
 20
118.348
 21
118.121
  0
LINE
  8
0
 10
233.667
 11
233.926
 20
118.121
 21
117.833
  0
LINE
  8
0
 10
233.926
 11
234.119
 20
117.833
 21
117.498
  0
LINE
  8
0
 10
234.119
 11
234.239
 20
117.498
 21
117.131
  0
LINE
  8
0
 10
234.239
 11
234.279
 20
117.131
 21
116.746
  0
LINE
  8
0
 10
234.279
 11
234.239
 20
116.746
 21
116.361
  0
LINE
  8
0
 10
234.239
 11
234.119
 20
116.361
 21
115.994
  0
LINE
  8
0
 10
234.119
 11
233.926
 20
115.994
 21
115.659
  0
LINE
  8
0
 10
233.926
 11
233.667
 20
115.659
 21
115.371
  0
LINE
  8
0
 10
233.667
 11
233.354
 20
115.371
 21
115.144
  0
LINE
  8
0
 10
233.354
 11
233.001
 20
115.144
 21
114.987
  0
LINE
  8
0
 10
233.001
 11
232.622
 20
114.987
 21
114.906
  0
LINE
  8
0
 10
232.622
 11
232.236
 20
114.906
 21
114.906
  0
LINE
  8
0
 10
232.236
 11
231.857
 20
114.906
 21
114.987
  0
LINE
  8
0
 10
231.857
 11
231.504
 20
114.987
 21
115.144
  0
LINE
  8
0
 10
231.504
 11
231.191
 20
115.144
 21
115.371
  0
LINE
  8
0
 10
231.191
 11
230.932
 20
115.371
 21
115.659
  0
LINE
  8
0
 10
230.932
 11
230.739
 20
115.659
 21
115.994
  0
LINE
  8
0
 10
230.739
 11
230.619
 20
115.994
 21
116.361
  0
LINE
  8
0
 10
230.619
 11
230.579
 20
116.361
 21
116.746
  0
LINE
  8
0
 10
230.579
 11
230.619
 20
157.746
 21
158.131
  0
LINE
  8
0
 10
230.619
 11
230.739
 20
158.131
 21
158.498
  0
LINE
  8
0
 10
230.739
 11
230.932
 20
158.498
 21
158.833
  0
LINE
  8
0
 10
230.932
 11
231.191
 20
158.833
 21
159.121
  0
LINE
  8
0
 10
231.191
 11
231.504
 20
159.121
 21
159.348
  0
LINE
  8
0
 10
231.504
 11
231.857
 20
159.348
 21
159.505
  0
LINE
  8
0
 10
231.857
 11
232.236
 20
159.505
 21
159.586
  0
LINE
  8
0
 10
232.236
 11
232.622
 20
159.586
 21
159.586
  0
LINE
  8
0
 10
232.622
 11
233.001
 20
159.586
 21
159.505
  0
LINE
  8
0
 10
233.001
 11
233.354
 20
159.505
 21
159.348
  0
LINE
  8
0
 10
233.354
 11
233.667
 20
159.348
 21
159.121
  0
LINE
  8
0
 10
233.667
 11
233.926
 20
159.121
 21
158.833
  0
LINE
  8
0
 10
233.926
 11
234.119
 20
158.833
 21
158.498
  0
LINE
  8
0
 10
234.119
 11
234.239
 20
158.498
 21
158.131
  0
LINE
  8
0
 10
234.239
 11
234.279
 20
158.131
 21
157.746
  0
LINE
  8
0
 10
234.279
 11
234.239
 20
157.746
 21
157.361
  0
LINE
  8
0
 10
234.239
 11
234.119
 20
157.361
 21
156.994
  0
LINE
  8
0
 10
234.119
 11
233.926
 20
156.994
 21
156.659
  0
LINE
  8
0
 10
233.926
 11
233.667
 20
156.659
 21
156.371
  0
LINE
  8
0
 10
233.667
 11
233.354
 20
156.371
 21
156.144
  0
LINE
  8
0
 10
233.354
 11
233.001
 20
156.144
 21
155.987
  0
LINE
  8
0
 10
233.001
 11
232.622
 20
155.987
 21
155.906
  0
LINE
  8
0
 10
232.622
 11
232.236
 20
155.906
 21
155.906
  0
LINE
  8
0
 10
232.236
 11
231.857
 20
155.906
 21
155.987
  0
LINE
  8
0
 10
231.857
 11
231.504
 20
155.987
 21
156.144
  0
LINE
  8
0
 10
231.504
 11
231.191
 20
156.144
 21
156.371
  0
LINE
  8
0
 10
231.191
 11
230.932
 20
156.371
 21
156.659
  0
LINE
  8
0
 10
230.932
 11
230.739
 20
156.659
 21
156.994
  0
LINE
  8
0
 10
230.739
 11
230.619
 20
156.994
 21
157.361
  0
LINE
  8
0
 10
230.619
 11
230.579
 20
157.361
 21
157.746
  0
LINE
  8
0
 10
237.429
 11
237.429
 20
115.246
 21
118.246
  0
LINE
  8
0
 10
237.429
 11
247.429
 20
118.246
 21
118.246
  0
LINE
  8
0
 10
247.429
 11
247.429
 20
118.246
 21
115.246
  0
LINE
  8
0
 10
247.429
 11
237.429
 20
115.246
 21
115.246
  0
LINE
  8
0
 10
237.429
 11
237.429
 20
156.246
 21
159.246
  0
LINE
  8
0
 10
237.429
 11
247.429
 20
159.246
 21
159.246
  0
LINE
  8
0
 10
247.429
 11
247.429
 20
159.246
 21
156.246
  0
LINE
  8
0
 10
247.429
 11
237.429
 20
156.246
 21
156.246
  0
LINE
  8
0
 10
240.191
 11
240.191
 20
55.035
 21
56.211
  0
LINE
  8
0
 10
240.191
 11
241.309
 20
56.211
 21
56.574
  0
LINE
  8
0
 10
241.309
 11
242
 20
56.574
 21
55.623
  0
LINE
  8
0
 10
242
 11
241.309
 20
55.623
 21
54.672
  0
LINE
  8
0
 10
241.309
 11
240.191
 20
54.672
 21
55.035
  0
LINE
  8
0
 10
258.8
 11
258.8
 20
38.423
 21
72.823
  0
LINE
  8
0
 10
258.8
 11
283.2
 20
72.823
 21
72.823
  0
LINE
  8
0
 10
283.2
 11
283.2
 20
72.823
 21
38.423
  0
LINE
  8
0
 10
283.2
 11
258.8
 20
38.423
 21
38.423
  0
LINE
  8
0
 10
294.571
 11
294.571
 20
115.246
 21
118.246
  0
LINE
  8
0
 10
294.571
 11
304.571
 20
118.246
 21
118.246
  0
LINE
  8
0
 10
304.571
 11
304.571
 20
118.246
 21
115.246
  0
LINE
  8
0
 10
304.571
 11
294.571
 20
115.246
 21
115.246
  0
LINE
  8
0
 10
294.571
 11
294.571
 20
156.246
 21
159.246
  0
LINE
  8
0
 10
294.571
 11
304.571
 20
159.246
 21
159.246
  0
LINE
  8
0
 10
304.571
 11
304.571
 20
159.246
 21
156.246
  0
LINE
  8
0
 10
304.571
 11
294.571
 20
156.246
 21
156.246
  0
LINE
  8
0
 10
307.721
 11
307.761
 20
116.746
 21
117.131
  0
LINE
  8
0
 10
307.761
 11
307.881
 20
117.131
 21
117.498
  0
LINE
  8
0
 10
307.881
 11
308.074
 20
117.498
 21
117.833
  0
LINE
  8
0
 10
308.074
 11
308.333
 20
117.833
 21
118.121
  0
LINE
  8
0
 10
308.333
 11
308.646
 20
118.121
 21
118.348
  0
LINE
  8
0
 10
308.646
 11
308.999
 20
118.348
 21
118.505
  0
LINE
  8
0
 10
308.999
 11
309.378
 20
118.505
 21
118.586
  0
LINE
  8
0
 10
309.378
 11
309.764
 20
118.586
 21
118.586
  0
LINE
  8
0
 10
309.764
 11
310.143
 20
118.586
 21
118.505
  0
LINE
  8
0
 10
310.143
 11
310.496
 20
118.505
 21
118.348
  0
LINE
  8
0
 10
310.496
 11
310.809
 20
118.348
 21
118.121
  0
LINE
  8
0
 10
310.809
 11
311.068
 20
118.121
 21
117.833
  0
LINE
  8
0
 10
311.068
 11
311.261
 20
117.833
 21
117.498
  0
LINE
  8
0
 10
311.261
 11
311.381
 20
117.498
 21
117.131
  0
LINE
  8
0
 10
311.381
 11
311.421
 20
117.131
 21
116.746
  0
LINE
  8
0
 10
311.421
 11
311.381
 20
116.746
 21
116.361
  0
LINE
  8
0
 10
311.381
 11
311.261
 20
116.361
 21
115.994
  0
LINE
  8
0
 10
311.261
 11
311.068
 20
115.994
 21
115.659
  0
LINE
  8
0
 10
311.068
 11
310.809
 20
115.659
 21
115.371
  0
LINE
  8
0
 10
310.809
 11
310.496
 20
115.371
 21
115.144
  0
LINE
  8
0
 10
310.496
 11
310.143
 20
115.144
 21
114.987
  0
LINE
  8
0
 10
310.143
 11
309.764
 20
114.987
 21
114.906
  0
LINE
  8
0
 10
309.764
 11
309.378
 20
114.906
 21
114.906
  0
LINE
  8
0
 10
309.378
 11
308.999
 20
114.906
 21
114.987
  0
LINE
  8
0
 10
308.999
 11
308.646
 20
114.987
 21
115.144
  0
LINE
  8
0
 10
308.646
 11
308.333
 20
115.144
 21
115.371
  0
LINE
  8
0
 10
308.333
 11
308.074
 20
115.371
 21
115.659
  0
LINE
  8
0
 10
308.074
 11
307.881
 20
115.659
 21
115.994
  0
LINE
  8
0
 10
307.881
 11
307.761
 20
115.994
 21
116.361
  0
LINE
  8
0
 10
307.761
 11
307.721
 20
116.361
 21
116.746
  0
LINE
  8
0
 10
307.721
 11
307.761
 20
157.746
 21
158.131
  0
LINE
  8
0
 10
307.761
 11
307.881
 20
158.131
 21
158.498
  0
LINE
  8
0
 10
307.881
 11
308.074
 20
158.498
 21
158.833
  0
LINE
  8
0
 10
308.074
 11
308.333
 20
158.833
 21
159.121
  0
LINE
  8
0
 10
308.333
 11
308.646
 20
159.121
 21
159.348
  0
LINE
  8
0
 10
308.646
 11
308.999
 20
159.348
 21
159.505
  0
LINE
  8
0
 10
308.999
 11
309.378
 20
159.505
 21
159.586
  0
LINE
  8
0
 10
309.378
 11
309.764
 20
159.586
 21
159.586
  0
LINE
  8
0
 10
309.764
 11
310.143
 20
159.586
 21
159.505
  0
LINE
  8
0
 10
310.143
 11
310.496
 20
159.505
 21
159.348
  0
LINE
  8
0
 10
310.496
 11
310.809
 20
159.348
 21
159.121
  0
LINE
  8
0
 10
310.809
 11
311.068
 20
159.121
 21
158.833
  0
LINE
  8
0
 10
311.068
 11
311.261
 20
158.833
 21
158.498
  0
LINE
  8
0
 10
311.261
 11
311.381
 20
158.498
 21
158.131
  0
LINE
  8
0
 10
311.381
 11
311.421
 20
158.131
 21
157.746
  0
LINE
  8
0
 10
311.421
 11
311.381
 20
157.746
 21
157.361
  0
LINE
  8
0
 10
311.381
 11
311.261
 20
157.361
 21
156.994
  0
LINE
  8
0
 10
311.261
 11
311.068
 20
156.994
 21
156.659
  0
LINE
  8
0
 10
311.068
 11
310.809
 20
156.659
 21
156.371
  0
LINE
  8
0
 10
310.809
 11
310.496
 20
156.371
 21
156.144
  0
LINE
  8
0
 10
310.496
 11
310.143
 20
156.144
 21
155.987
  0
LINE
  8
0
 10
310.143
 11
309.764
 20
155.987
 21
155.906
  0
LINE
  8
0
 10
309.764
 11
309.378
 20
155.906
 21
155.906
  0
LINE
  8
0
 10
309.378
 11
308.999
 20
155.906
 21
155.987
  0
LINE
  8
0
 10
308.999
 11
308.646
 20
155.987
 21
156.144
  0
LINE
  8
0
 10
308.646
 11
308.333
 20
156.144
 21
156.371
  0
LINE
  8
0
 10
308.333
 11
308.074
 20
156.371
 21
156.659
  0
LINE
  8
0
 10
308.074
 11
307.881
 20
156.659
 21
156.994
  0
LINE
  8
0
 10
307.881
 11
307.761
 20
156.994
 21
157.361
  0
LINE
  8
0
 10
307.761
 11
307.721
 20
157.361
 21
157.746
  0
LINE
  8
0
 10
314.571
 11
314.571
 20
115.246
 21
118.246
  0
LINE
  8
0
 10
314.571
 11
324.571
 20
118.246
 21
118.246
  0
LINE
  8
0
 10
324.571
 11
324.571
 20
118.246
 21
115.246
  0
LINE
  8
0
 10
324.571
 11
314.571
 20
115.246
 21
115.246
  0
LINE
  8
0
 10
314.571
 11
314.571
 20
156.246
 21
159.246
  0
LINE
  8
0
 10
314.571
 11
324.571
 20
159.246
 21
159.246
  0
LINE
  8
0
 10
324.571
 11
324.571
 20
159.246
 21
156.246
  0
LINE
  8
0
 10
324.571
 11
314.571
 20
156.246
 21
156.246
  0
ENDSEC
  0
SECTION
  2
OBJECTS
  0
DICTIONARY
  0
ENDSEC
  0
EOF
